<?xml version="1.0" encoding="utf-8"?>
<!-- Generator: Adobe Illustrator 19.2.1, SVG Export Plug-In . SVG Version: 6.00 Build 0)  -->
<svg version="1.1" id="layer" xmlns="http://www.w3.org/2000/svg" xmlns:xlink="http://www.w3.org/1999/xlink" x="0px" y="0px"
	 viewBox="0 0 652 652" style="enable-background:new 0 0 652 652;" xml:space="preserve">
<style type="text/css">
	.st0{fill:#FF555F;}
	.st1{fill:#25A5BD;}
	.st2{fill:#1E2C4C;}
</style>
<g>
	<path class="st0" d="M177,266.3l-39.6,28l-38.9-27.6l-38.9,27.6L20,266.3l78.5-55.7L177,266.3"/>
	<path class="st1" d="M60.4,348.2V294L20,266.4v109.3l80.2,54.7v-55.1L60.4,348.2 M100.2,378.1h38.4v-55.8h-38.4V378.1z"/>
	<path class="st2" d="M100.2,430.4l80.2-54.1v-54.1l-80.2,53.7V430.4"/>
	<path class="st0" d="M140.2,350.2l-39.9-28l39.7-27.8l40.5,27.9L140.2,350.2"/>
	<path class="st1" d="M261,338.3c8.3,0,15.2-7.1,15.2-16.1c0-8.9-6.9-16-15.2-16c-8.2,0-15.1,7.1-15.1,16
		C245.9,331.2,252.8,338.3,261,338.3L261,338.3z M247.7,351.1c2.5,4.7,7.4,8,13,8c8.2,0,14.8-6.9,14.8-15.4v-0.6l-0.2-0.1
		c-4.6,4.4-10.4,7.1-17,7.1c-14.1,0-25.4-12.5-25.4-27.9c0-15.5,11.4-27.9,25.4-27.9c6.6,0,12.4,2.7,17,7.2l0.2-0.1v-5.7h13.1v47.9
		c0,15.1-11.6,27.4-27.3,27.4c-10.6,0-19.7-5.4-24.6-13.7C236.7,357.4,247.7,351.1,247.7,351.1z M333.9,314.9l0.1-0.2
		c-2.9-5.2-8-8.7-13.9-8.7c-6.1,0-10.9,3.3-14,8.7l0.1,0.2C306.1,314.9,333.9,314.9,333.9,314.9z M332.4,333.1l9.1,8.7
		c-5.2,5.2-12.5,8.4-20.5,8.4c-16,0-28.8-12.4-28.8-27.9c0-15.5,12.4-27.9,28-27.9c15.4,0,27.8,12.4,27.8,27.8c0,0.1,0,0.1,0,0.2
		c0,2.5-0.2,3.2-0.2,3.2h-42.6c0,5.9,7.1,12.8,15.2,12.8C325,338.2,329.2,336.1,332.4,333.1L332.4,333.1z M367.6,323v27.2h-12.7
		v-54.3h12.7v6.6l0.2,0.1c4.3-5.5,10.1-8.2,16.1-8.2c22.7,0,23.3,21.1,23.3,27.6v28.2h-12.7V323c0-6.5-0.1-16.5-13.3-16.5
		C373.7,306.5,367.6,313.8,367.6,323 M441.8,306.4c-8.4,0-15.2,7.3-15.2,16.2c0,9.1,6.8,16.4,15.2,16.4c8.2,0,15.1-7.3,15.1-16.4
		C456.9,313.7,450,306.4,441.8,306.4z M444.6,351.3c-6.7,0-12.4-2.7-17.1-7.4l-0.2,0.1v27.1h-13.1v-75.2h13.1v5.6l0.2,0.1
		c4.7-4.5,10.4-7.3,17.1-7.3c14,0,25.4,12.7,25.4,28.5C470,338.6,458.6,351.3,444.6,351.3L444.6,351.3z M501.7,338.2
		c8.3,0,15.1-7,15.1-15.9c0-8.9-6.8-16-15.1-16c-8.2,0-15.1,7.1-15.1,16C486.6,331.2,493.5,338.2,501.7,338.2L501.7,338.2z
		 M498.9,294.3c6.6,0,12.4,2.7,17,7.2l0.2-0.1v-5.7h13.1v52.9h-13.1v-5.4l-0.2-0.2c-4.6,4.4-10.4,7.1-17,7.1
		c-14.1,0-25.4-12.4-25.4-27.9S484.9,294.3,498.9,294.3L498.9,294.3z M585.1,341.8c-5.4,5.4-12.7,8.4-20.3,8.4
		c-15.9,0-28.5-12.4-28.5-27.9c0-15.5,12.6-27.9,28.5-27.9c7.9,0,15.2,3.2,20.3,8.4l-9.1,8.4c-2.9-3.1-7-4.9-11.3-4.9
		c-8.7,0-15.6,7.2-15.6,16c0,8.8,6.9,15.9,15.6,15.9c4.4,0,8.5-1.8,11.5-5L585.1,341.8 M610.9,305.9v40.7h-13.2v-40.7h-9.1v-12.2
		h9.1v-23.8h13.2v23.8h9.1v12.2H610.9"/>
</g>
</svg>
